<svg xmlns="http://www.w3.org/2000/svg" width="160" height="160" viewBox="0 0 160 160" shape-rendering="crispEdges"><title>Frosthavn cottage</title><polygon points="10,146 150,146 156,151 148,154 12,154 5,150" fill="#172421"/><rect x="12" y="100" width="136" height="48" fill="#6b503a" /><rect x="12" y="100" width="136" height="7" fill="#6b503a" /><rect x="12" y="106" width="136" height="1" fill="#382e26" /><rect x="12" y="100" width="136" height="1" fill="#8a6748" /><rect x="20" y="101" width="1" height="5" fill="#4b382a" /><rect x="23" y="103" width="9" height="1" fill="#98704a" /><rect x="27" y="104" width="3" height="1" fill="#4b382a" /><rect x="49" y="101" width="1" height="5" fill="#4b382a" /><rect x="52" y="103" width="9" height="1" fill="#98704a" /><rect x="56" y="104" width="3" height="1" fill="#4b382a" /><rect x="78" y="101" width="1" height="5" fill="#4b382a" /><rect x="81" y="103" width="9" height="1" fill="#98704a" /><rect x="85" y="104" width="3" height="1" fill="#4b382a" /><rect x="107" y="101" width="1" height="5" fill="#4b382a" /><rect x="110" y="103" width="9" height="1" fill="#98704a" /><rect x="114" y="104" width="3" height="1" fill="#4b382a" /><rect x="136" y="101" width="1" height="5" fill="#4b382a" /><rect x="139" y="103" width="9" height="1" fill="#98704a" /><rect x="143" y="104" width="3" height="1" fill="#4b382a" /><rect x="12" y="107" width="136" height="7" fill="#73563c" /><rect x="12" y="113" width="136" height="1" fill="#382e26" /><rect x="12" y="107" width="136" height="1" fill="#8a6748" /><rect x="37" y="108" width="1" height="5" fill="#4b382a" /><rect x="40" y="110" width="9" height="1" fill="#98704a" /><rect x="44" y="111" width="3" height="1" fill="#4b382a" /><rect x="66" y="108" width="1" height="5" fill="#4b382a" /><rect x="69" y="110" width="9" height="1" fill="#98704a" /><rect x="73" y="111" width="3" height="1" fill="#4b382a" /><rect x="95" y="108" width="1" height="5" fill="#4b382a" /><rect x="98" y="110" width="9" height="1" fill="#98704a" /><rect x="102" y="111" width="3" height="1" fill="#4b382a" /><rect x="124" y="108" width="1" height="5" fill="#4b382a" /><rect x="127" y="110" width="9" height="1" fill="#98704a" /><rect x="131" y="111" width="3" height="1" fill="#4b382a" /><rect x="12" y="114" width="136" height="7" fill="#604731" /><rect x="12" y="120" width="136" height="1" fill="#382e26" /><rect x="12" y="114" width="136" height="1" fill="#8a6748" /><rect x="25" y="115" width="1" height="5" fill="#4b382a" /><rect x="28" y="117" width="9" height="1" fill="#98704a" /><rect x="32" y="118" width="3" height="1" fill="#4b382a" /><rect x="54" y="115" width="1" height="5" fill="#4b382a" /><rect x="57" y="117" width="9" height="1" fill="#98704a" /><rect x="61" y="118" width="3" height="1" fill="#4b382a" /><rect x="83" y="115" width="1" height="5" fill="#4b382a" /><rect x="86" y="117" width="9" height="1" fill="#98704a" /><rect x="90" y="118" width="3" height="1" fill="#4b382a" /><rect x="112" y="115" width="1" height="5" fill="#4b382a" /><rect x="115" y="117" width="9" height="1" fill="#98704a" /><rect x="119" y="118" width="3" height="1" fill="#4b382a" /><rect x="141" y="115" width="1" height="5" fill="#4b382a" /><rect x="144" y="117" width="4" height="1" fill="#98704a" /><rect x="12" y="121" width="136" height="7" fill="#7c5d40" /><rect x="12" y="127" width="136" height="1" fill="#382e26" /><rect x="12" y="121" width="136" height="1" fill="#8a6748" /><rect x="42" y="122" width="1" height="5" fill="#4b382a" /><rect x="45" y="124" width="9" height="1" fill="#98704a" /><rect x="49" y="125" width="3" height="1" fill="#4b382a" /><rect x="71" y="122" width="1" height="5" fill="#4b382a" /><rect x="74" y="124" width="9" height="1" fill="#98704a" /><rect x="78" y="125" width="3" height="1" fill="#4b382a" /><rect x="100" y="122" width="1" height="5" fill="#4b382a" /><rect x="103" y="124" width="9" height="1" fill="#98704a" /><rect x="107" y="125" width="3" height="1" fill="#4b382a" /><rect x="129" y="122" width="1" height="5" fill="#4b382a" /><rect x="132" y="124" width="9" height="1" fill="#98704a" /><rect x="136" y="125" width="3" height="1" fill="#4b382a" /><rect x="12" y="128" width="136" height="7" fill="#654c36" /><rect x="12" y="134" width="136" height="1" fill="#382e26" /><rect x="12" y="128" width="136" height="1" fill="#8a6748" /><rect x="30" y="129" width="1" height="5" fill="#4b382a" /><rect x="33" y="131" width="9" height="1" fill="#98704a" /><rect x="37" y="132" width="3" height="1" fill="#4b382a" /><rect x="59" y="129" width="1" height="5" fill="#4b382a" /><rect x="62" y="131" width="9" height="1" fill="#98704a" /><rect x="66" y="132" width="3" height="1" fill="#4b382a" /><rect x="88" y="129" width="1" height="5" fill="#4b382a" /><rect x="91" y="131" width="9" height="1" fill="#98704a" /><rect x="95" y="132" width="3" height="1" fill="#4b382a" /><rect x="117" y="129" width="1" height="5" fill="#4b382a" /><rect x="120" y="131" width="9" height="1" fill="#98704a" /><rect x="124" y="132" width="3" height="1" fill="#4b382a" /><rect x="12" y="135" width="136" height="7" fill="#6b503a" /><rect x="12" y="141" width="136" height="1" fill="#382e26" /><rect x="12" y="135" width="136" height="1" fill="#8a6748" /><rect x="47" y="136" width="1" height="5" fill="#4b382a" /><rect x="50" y="138" width="9" height="1" fill="#98704a" /><rect x="54" y="139" width="3" height="1" fill="#4b382a" /><rect x="76" y="136" width="1" height="5" fill="#4b382a" /><rect x="79" y="138" width="9" height="1" fill="#98704a" /><rect x="83" y="139" width="3" height="1" fill="#4b382a" /><rect x="105" y="136" width="1" height="5" fill="#4b382a" /><rect x="108" y="138" width="9" height="1" fill="#98704a" /><rect x="112" y="139" width="3" height="1" fill="#4b382a" /><rect x="134" y="136" width="1" height="5" fill="#4b382a" /><rect x="137" y="138" width="9" height="1" fill="#98704a" /><rect x="141" y="139" width="3" height="1" fill="#4b382a" /><rect x="12" y="142" width="136" height="6" fill="#73563c" /><rect x="12" y="147" width="136" height="1" fill="#382e26" /><rect x="12" y="142" width="136" height="1" fill="#8a6748" /><rect x="35" y="143" width="1" height="4" fill="#4b382a" /><rect x="38" y="145" width="9" height="1" fill="#98704a" /><rect x="42" y="146" width="3" height="1" fill="#4b382a" /><rect x="64" y="143" width="1" height="4" fill="#4b382a" /><rect x="67" y="145" width="9" height="1" fill="#98704a" /><rect x="71" y="146" width="3" height="1" fill="#4b382a" /><rect x="93" y="143" width="1" height="4" fill="#4b382a" /><rect x="96" y="145" width="9" height="1" fill="#98704a" /><rect x="100" y="146" width="3" height="1" fill="#4b382a" /><rect x="122" y="143" width="1" height="4" fill="#4b382a" /><rect x="125" y="145" width="9" height="1" fill="#98704a" /><rect x="129" y="146" width="3" height="1" fill="#4b382a" /><rect x="12" y="140" width="136" height="8" fill="#373f3c" /><rect x="13" y="141" width="11" height="6" fill="#636b61" /><rect x="14" y="141" width="9" height="1" fill="#8a8977" /><rect x="14" y="145" width="8" height="1" fill="#4b554e" /><rect x="26" y="141" width="11" height="6" fill="#707468" /><rect x="27" y="141" width="9" height="1" fill="#8a8977" /><rect x="27" y="145" width="8" height="1" fill="#4b554e" /><rect x="39" y="141" width="11" height="6" fill="#636b61" /><rect x="40" y="141" width="9" height="1" fill="#8a8977" /><rect x="40" y="145" width="8" height="1" fill="#4b554e" /><rect x="52" y="141" width="11" height="6" fill="#636b61" /><rect x="53" y="141" width="9" height="1" fill="#8a8977" /><rect x="53" y="145" width="8" height="1" fill="#4b554e" /><rect x="65" y="141" width="11" height="6" fill="#707468" /><rect x="66" y="141" width="9" height="1" fill="#8a8977" /><rect x="66" y="145" width="8" height="1" fill="#4b554e" /><rect x="78" y="141" width="11" height="6" fill="#636b61" /><rect x="79" y="141" width="9" height="1" fill="#8a8977" /><rect x="79" y="145" width="8" height="1" fill="#4b554e" /><rect x="91" y="141" width="11" height="6" fill="#636b61" /><rect x="92" y="141" width="9" height="1" fill="#8a8977" /><rect x="92" y="145" width="8" height="1" fill="#4b554e" /><rect x="104" y="141" width="11" height="6" fill="#707468" /><rect x="105" y="141" width="9" height="1" fill="#8a8977" /><rect x="105" y="145" width="8" height="1" fill="#4b554e" /><rect x="117" y="141" width="11" height="6" fill="#707468" /><rect x="118" y="141" width="9" height="1" fill="#8a8977" /><rect x="118" y="145" width="8" height="1" fill="#4b554e" /><rect x="130" y="141" width="11" height="6" fill="#636b61" /><rect x="131" y="141" width="9" height="1" fill="#8a8977" /><rect x="131" y="145" width="8" height="1" fill="#4b554e" /><rect x="143" y="141" width="4" height="6" fill="#707468" /><rect x="144" y="141" width="2" height="1" fill="#8a8977" /><rect x="144" y="145" width="1" height="1" fill="#4b554e" /><rect x="14" y="102" width="7" height="38" fill="#3d3329" /><rect x="15" y="102" width="2" height="38" fill="#997551" /><rect x="15" y="110" width="5" height="4" fill="#717c79" /><rect x="16" y="111" width="1" height="1" fill="#ccd0be" /><rect x="15" y="130" width="5" height="4" fill="#565f5c" /><rect x="18" y="131" width="1" height="1" fill="#a3aba0" /><rect x="139" y="102" width="7" height="38" fill="#3d3329" /><rect x="140" y="102" width="2" height="38" fill="#997551" /><rect x="140" y="110" width="5" height="4" fill="#717c79" /><rect x="141" y="111" width="1" height="1" fill="#ccd0be" /><rect x="140" y="130" width="5" height="4" fill="#565f5c" /><rect x="143" y="131" width="1" height="1" fill="#a3aba0" /><rect x="103" y="106" width="25" height="28" fill="#202727" /><rect x="104" y="107" width="23" height="26" fill="#a17b51" /><rect x="106" y="109" width="19" height="22" fill="#855934" /><rect x="107" y="111" width="17" height="18" fill="#cc8d48" /><rect x="108" y="114" width="15" height="13" fill="#eed197" /><rect x="109" y="115" width="3" height="5" fill="#f7e0a2" /><rect x="114" y="109" width="2" height="22" fill="#59412e" /><rect x="106" y="120" width="19" height="2" fill="#59412e" /><rect x="102" y="132" width="27" height="3" fill="#bea07a" /><rect x="102" y="135" width="27" height="2" fill="#463b2e" /><rect x="40" y="101" width="36" height="47" fill="#202727" /><rect x="41" y="103" width="3" height="45" fill="#987248" /><rect x="72" y="103" width="3" height="45" fill="#6e5036" /><rect x="41" y="102" width="34" height="4" fill="#a27b4d" /><rect x="44" y="106" width="28" height="39" fill="#40362b" /><rect x="46" y="107" width="4" height="37" fill="#604a32" /><rect x="46" y="108" width="1" height="35" fill="#7a5b3b" /><rect x="52" y="107" width="4" height="37" fill="#604a32" /><rect x="52" y="108" width="1" height="35" fill="#7a5b3b" /><rect x="58" y="107" width="4" height="37" fill="#604a32" /><rect x="58" y="108" width="1" height="35" fill="#7a5b3b" /><rect x="64" y="107" width="4" height="37" fill="#604a32" /><rect x="64" y="108" width="1" height="35" fill="#7a5b3b" /><rect x="70" y="107" width="4" height="37" fill="#604a32" /><rect x="70" y="108" width="1" height="35" fill="#7a5b3b" /><rect x="45" y="117" width="26" height="3" fill="#343e3e" /><rect x="46" y="117" width="24" height="1" fill="#79827b" /><rect x="47" y="118" width="1" height="1" fill="#b8b5a0" /><rect x="67" y="118" width="1" height="1" fill="#b8b5a0" /><rect x="45" y="135" width="26" height="3" fill="#343e3e" /><rect x="46" y="135" width="24" height="1" fill="#79827b" /><rect x="47" y="136" width="1" height="1" fill="#b8b5a0" /><rect x="67" y="136" width="1" height="1" fill="#b8b5a0" /><rect x="65" y="127" width="3" height="5" fill="#bb9661" /><rect x="66" y="128" width="1" height="3" fill="#293332" /><rect x="41" y="145" width="34" height="3" fill="#8f8d76" /><path d="M88 104L88 139M88 112L103 137" fill="none" stroke="#3c3329" stroke-width="5"/><path d="M89 114L102 135" fill="none" stroke="#9e784e" stroke-width="1"/><polygon points="19,33 40,18 120,18 141,33" fill="#728063" stroke="#202727" stroke-width="2"/><defs><clipPath id="cottage-roof"><polygon points="1,101 22,33 138,33 159,101" fill="#fff"/></clipPath></defs><g clip-path="url(#cottage-roof)"><rect x="0" y="32" width="160" height="72" fill="#52634a" /><rect x="-12" y="32" width="11" height="7" fill="#71805a" /><rect x="-12" y="38" width="11" height="1" fill="#384d3c" /><rect x="-11" y="32" width="9" height="1" fill="#83916b" /><rect x="0" y="32" width="11" height="7" fill="#637251" /><rect x="0" y="38" width="11" height="1" fill="#384d3c" /><rect x="1" y="32" width="9" height="1" fill="#83916b" /><rect x="12" y="32" width="11" height="7" fill="#637251" /><rect x="12" y="38" width="11" height="1" fill="#384d3c" /><rect x="13" y="32" width="9" height="1" fill="#83916b" /><rect x="15" y="35" width="4" height="1" fill="#92a06c" /><rect x="24" y="32" width="11" height="7" fill="#637251" /><rect x="24" y="38" width="11" height="1" fill="#384d3c" /><rect x="25" y="32" width="9" height="1" fill="#83916b" /><rect x="36" y="32" width="11" height="7" fill="#637251" /><rect x="36" y="38" width="11" height="1" fill="#384d3c" /><rect x="37" y="32" width="9" height="1" fill="#83916b" /><rect x="39" y="35" width="4" height="1" fill="#92a06c" /><rect x="48" y="32" width="11" height="7" fill="#637251" /><rect x="48" y="38" width="11" height="1" fill="#384d3c" /><rect x="49" y="32" width="9" height="1" fill="#83916b" /><rect x="60" y="32" width="11" height="7" fill="#637251" /><rect x="60" y="38" width="11" height="1" fill="#384d3c" /><rect x="61" y="32" width="9" height="1" fill="#83916b" /><rect x="63" y="35" width="4" height="1" fill="#92a06c" /><rect x="72" y="32" width="11" height="7" fill="#637251" /><rect x="72" y="38" width="11" height="1" fill="#384d3c" /><rect x="73" y="32" width="9" height="1" fill="#83916b" /><rect x="84" y="32" width="11" height="7" fill="#637251" /><rect x="84" y="38" width="11" height="1" fill="#384d3c" /><rect x="85" y="32" width="9" height="1" fill="#83916b" /><rect x="87" y="35" width="4" height="1" fill="#92a06c" /><rect x="96" y="32" width="11" height="7" fill="#52634a" /><rect x="96" y="38" width="11" height="1" fill="#384d3c" /><rect x="97" y="32" width="9" height="1" fill="#83916b" /><rect x="108" y="32" width="11" height="7" fill="#52634a" /><rect x="108" y="38" width="11" height="1" fill="#384d3c" /><rect x="109" y="32" width="9" height="1" fill="#83916b" /><rect x="120" y="32" width="11" height="7" fill="#52634a" /><rect x="120" y="38" width="11" height="1" fill="#384d3c" /><rect x="121" y="32" width="9" height="1" fill="#83916b" /><rect x="132" y="32" width="11" height="7" fill="#52634a" /><rect x="132" y="38" width="11" height="1" fill="#384d3c" /><rect x="133" y="32" width="9" height="1" fill="#83916b" /><rect x="139" y="34" width="2" height="3" fill="#56684c" /><rect x="144" y="32" width="11" height="7" fill="#52634a" /><rect x="144" y="38" width="11" height="1" fill="#384d3c" /><rect x="145" y="32" width="9" height="1" fill="#83916b" /><rect x="156" y="32" width="11" height="7" fill="#52634a" /><rect x="156" y="38" width="11" height="1" fill="#384d3c" /><rect x="157" y="32" width="9" height="1" fill="#83916b" /><rect x="-6" y="40" width="11" height="7" fill="#71805a" /><rect x="-6" y="46" width="11" height="1" fill="#384d3c" /><rect x="-5" y="40" width="9" height="1" fill="#83916b" /><rect x="-3" y="43" width="4" height="1" fill="#92a06c" /><rect x="6" y="40" width="11" height="7" fill="#465b45" /><rect x="6" y="46" width="11" height="1" fill="#384d3c" /><rect x="7" y="40" width="9" height="1" fill="#83916b" /><rect x="18" y="40" width="11" height="7" fill="#637251" /><rect x="18" y="46" width="11" height="1" fill="#384d3c" /><rect x="19" y="40" width="9" height="1" fill="#83916b" /><rect x="30" y="40" width="11" height="7" fill="#5d6b4d" /><rect x="30" y="46" width="11" height="1" fill="#384d3c" /><rect x="31" y="40" width="9" height="1" fill="#83916b" /><rect x="37" y="42" width="2" height="3" fill="#56684c" /><rect x="42" y="40" width="11" height="7" fill="#465b45" /><rect x="42" y="46" width="11" height="1" fill="#384d3c" /><rect x="43" y="40" width="9" height="1" fill="#83916b" /><rect x="54" y="40" width="11" height="7" fill="#637251" /><rect x="54" y="46" width="11" height="1" fill="#384d3c" /><rect x="55" y="40" width="9" height="1" fill="#83916b" /><rect x="57" y="43" width="4" height="1" fill="#92a06c" /><rect x="66" y="40" width="11" height="7" fill="#5d6b4d" /><rect x="66" y="46" width="11" height="1" fill="#384d3c" /><rect x="67" y="40" width="9" height="1" fill="#83916b" /><rect x="73" y="42" width="2" height="3" fill="#56684c" /><rect x="78" y="40" width="11" height="7" fill="#52634a" /><rect x="78" y="46" width="11" height="1" fill="#384d3c" /><rect x="79" y="40" width="9" height="1" fill="#83916b" /><rect x="90" y="40" width="11" height="7" fill="#71805a" /><rect x="90" y="46" width="11" height="1" fill="#384d3c" /><rect x="91" y="40" width="9" height="1" fill="#83916b" /><rect x="102" y="40" width="11" height="7" fill="#465b45" /><rect x="102" y="46" width="11" height="1" fill="#384d3c" /><rect x="103" y="40" width="9" height="1" fill="#83916b" /><rect x="105" y="43" width="4" height="1" fill="#92a06c" /><rect x="114" y="40" width="11" height="7" fill="#637251" /><rect x="114" y="46" width="11" height="1" fill="#384d3c" /><rect x="115" y="40" width="9" height="1" fill="#83916b" /><rect x="126" y="40" width="11" height="7" fill="#71805a" /><rect x="126" y="46" width="11" height="1" fill="#384d3c" /><rect x="127" y="40" width="9" height="1" fill="#83916b" /><rect x="138" y="40" width="11" height="7" fill="#465b45" /><rect x="138" y="46" width="11" height="1" fill="#384d3c" /><rect x="139" y="40" width="9" height="1" fill="#83916b" /><rect x="150" y="40" width="11" height="7" fill="#637251" /><rect x="150" y="46" width="11" height="1" fill="#384d3c" /><rect x="151" y="40" width="9" height="1" fill="#83916b" /><rect x="162" y="40" width="11" height="7" fill="#5d6b4d" /><rect x="162" y="46" width="11" height="1" fill="#384d3c" /><rect x="163" y="40" width="9" height="1" fill="#83916b" /><rect x="165" y="43" width="4" height="1" fill="#92a06c" /><rect x="-12" y="48" width="11" height="7" fill="#5d6b4d" /><rect x="-12" y="54" width="11" height="1" fill="#384d3c" /><rect x="-11" y="48" width="9" height="1" fill="#83916b" /><rect x="-9" y="51" width="4" height="1" fill="#92a06c" /><rect x="0" y="48" width="11" height="7" fill="#637251" /><rect x="0" y="54" width="11" height="1" fill="#384d3c" /><rect x="1" y="48" width="9" height="1" fill="#83916b" /><rect x="12" y="48" width="11" height="7" fill="#52634a" /><rect x="12" y="54" width="11" height="1" fill="#384d3c" /><rect x="13" y="48" width="9" height="1" fill="#83916b" /><rect x="24" y="48" width="11" height="7" fill="#465b45" /><rect x="24" y="54" width="11" height="1" fill="#384d3c" /><rect x="25" y="48" width="9" height="1" fill="#83916b" /><rect x="36" y="48" width="11" height="7" fill="#5d6b4d" /><rect x="36" y="54" width="11" height="1" fill="#384d3c" /><rect x="37" y="48" width="9" height="1" fill="#83916b" /><rect x="48" y="48" width="11" height="7" fill="#71805a" /><rect x="48" y="54" width="11" height="1" fill="#384d3c" /><rect x="49" y="48" width="9" height="1" fill="#83916b" /><rect x="60" y="48" width="11" height="7" fill="#637251" /><rect x="60" y="54" width="11" height="1" fill="#384d3c" /><rect x="61" y="48" width="9" height="1" fill="#83916b" /><rect x="72" y="48" width="11" height="7" fill="#465b45" /><rect x="72" y="54" width="11" height="1" fill="#384d3c" /><rect x="73" y="48" width="9" height="1" fill="#83916b" /><rect x="84" y="48" width="11" height="7" fill="#5d6b4d" /><rect x="84" y="54" width="11" height="1" fill="#384d3c" /><rect x="85" y="48" width="9" height="1" fill="#83916b" /><rect x="96" y="48" width="11" height="7" fill="#71805a" /><rect x="96" y="54" width="11" height="1" fill="#384d3c" /><rect x="97" y="48" width="9" height="1" fill="#83916b" /><rect x="108" y="48" width="11" height="7" fill="#637251" /><rect x="108" y="54" width="11" height="1" fill="#384d3c" /><rect x="109" y="48" width="9" height="1" fill="#83916b" /><rect x="120" y="48" width="11" height="7" fill="#52634a" /><rect x="120" y="54" width="11" height="1" fill="#384d3c" /><rect x="121" y="48" width="9" height="1" fill="#83916b" /><rect x="132" y="48" width="11" height="7" fill="#465b45" /><rect x="132" y="54" width="11" height="1" fill="#384d3c" /><rect x="133" y="48" width="9" height="1" fill="#83916b" /><rect x="144" y="48" width="11" height="7" fill="#71805a" /><rect x="144" y="54" width="11" height="1" fill="#384d3c" /><rect x="145" y="48" width="9" height="1" fill="#83916b" /><rect x="156" y="48" width="11" height="7" fill="#637251" /><rect x="156" y="54" width="11" height="1" fill="#384d3c" /><rect x="157" y="48" width="9" height="1" fill="#83916b" /><rect x="-6" y="56" width="11" height="7" fill="#5d6b4d" /><rect x="-6" y="62" width="11" height="1" fill="#384d3c" /><rect x="-5" y="56" width="9" height="1" fill="#83916b" /><rect x="6" y="56" width="11" height="7" fill="#465b45" /><rect x="6" y="62" width="11" height="1" fill="#384d3c" /><rect x="7" y="56" width="9" height="1" fill="#83916b" /><rect x="18" y="56" width="11" height="7" fill="#52634a" /><rect x="18" y="62" width="11" height="1" fill="#384d3c" /><rect x="19" y="56" width="9" height="1" fill="#83916b" /><rect x="30" y="56" width="11" height="7" fill="#52634a" /><rect x="30" y="62" width="11" height="1" fill="#384d3c" /><rect x="31" y="56" width="9" height="1" fill="#83916b" /><rect x="42" y="56" width="11" height="7" fill="#637251" /><rect x="42" y="62" width="11" height="1" fill="#384d3c" /><rect x="43" y="56" width="9" height="1" fill="#83916b" /><rect x="54" y="56" width="11" height="7" fill="#71805a" /><rect x="54" y="62" width="11" height="1" fill="#384d3c" /><rect x="55" y="56" width="9" height="1" fill="#83916b" /><rect x="66" y="56" width="11" height="7" fill="#5d6b4d" /><rect x="66" y="62" width="11" height="1" fill="#384d3c" /><rect x="67" y="56" width="9" height="1" fill="#83916b" /><rect x="69" y="59" width="4" height="1" fill="#92a06c" /><rect x="78" y="56" width="11" height="7" fill="#465b45" /><rect x="78" y="62" width="11" height="1" fill="#384d3c" /><rect x="79" y="56" width="9" height="1" fill="#83916b" /><rect x="90" y="56" width="11" height="7" fill="#52634a" /><rect x="90" y="62" width="11" height="1" fill="#384d3c" /><rect x="91" y="56" width="9" height="1" fill="#83916b" /><rect x="102" y="56" width="11" height="7" fill="#52634a" /><rect x="102" y="62" width="11" height="1" fill="#384d3c" /><rect x="103" y="56" width="9" height="1" fill="#83916b" /><rect x="105" y="59" width="4" height="1" fill="#92a06c" /><rect x="114" y="56" width="11" height="7" fill="#637251" /><rect x="114" y="62" width="11" height="1" fill="#384d3c" /><rect x="115" y="56" width="9" height="1" fill="#83916b" /><rect x="126" y="56" width="11" height="7" fill="#71805a" /><rect x="126" y="62" width="11" height="1" fill="#384d3c" /><rect x="127" y="56" width="9" height="1" fill="#83916b" /><rect x="138" y="56" width="11" height="7" fill="#5d6b4d" /><rect x="138" y="62" width="11" height="1" fill="#384d3c" /><rect x="139" y="56" width="9" height="1" fill="#83916b" /><rect x="150" y="56" width="11" height="7" fill="#465b45" /><rect x="150" y="62" width="11" height="1" fill="#384d3c" /><rect x="151" y="56" width="9" height="1" fill="#83916b" /><rect x="153" y="59" width="4" height="1" fill="#92a06c" /><rect x="162" y="56" width="11" height="7" fill="#465b45" /><rect x="162" y="62" width="11" height="1" fill="#384d3c" /><rect x="163" y="56" width="9" height="1" fill="#83916b" /><rect x="-12" y="64" width="11" height="7" fill="#465b45" /><rect x="-12" y="70" width="11" height="1" fill="#384d3c" /><rect x="-11" y="64" width="9" height="1" fill="#83916b" /><rect x="0" y="64" width="11" height="7" fill="#637251" /><rect x="0" y="70" width="11" height="1" fill="#384d3c" /><rect x="1" y="64" width="9" height="1" fill="#83916b" /><rect x="3" y="67" width="4" height="1" fill="#92a06c" /><rect x="12" y="64" width="11" height="7" fill="#465b45" /><rect x="12" y="70" width="11" height="1" fill="#384d3c" /><rect x="13" y="64" width="9" height="1" fill="#83916b" /><rect x="24" y="64" width="11" height="7" fill="#71805a" /><rect x="24" y="70" width="11" height="1" fill="#384d3c" /><rect x="25" y="64" width="9" height="1" fill="#83916b" /><rect x="27" y="67" width="4" height="1" fill="#92a06c" /><rect x="36" y="64" width="11" height="7" fill="#52634a" /><rect x="36" y="70" width="11" height="1" fill="#384d3c" /><rect x="37" y="64" width="9" height="1" fill="#83916b" /><rect x="48" y="64" width="11" height="7" fill="#71805a" /><rect x="48" y="70" width="11" height="1" fill="#384d3c" /><rect x="49" y="64" width="9" height="1" fill="#83916b" /><rect x="60" y="64" width="11" height="7" fill="#52634a" /><rect x="60" y="70" width="11" height="1" fill="#384d3c" /><rect x="61" y="64" width="9" height="1" fill="#83916b" /><rect x="72" y="64" width="11" height="7" fill="#5d6b4d" /><rect x="72" y="70" width="11" height="1" fill="#384d3c" /><rect x="73" y="64" width="9" height="1" fill="#83916b" /><rect x="84" y="64" width="11" height="7" fill="#637251" /><rect x="84" y="70" width="11" height="1" fill="#384d3c" /><rect x="85" y="64" width="9" height="1" fill="#83916b" /><rect x="96" y="64" width="11" height="7" fill="#465b45" /><rect x="96" y="70" width="11" height="1" fill="#384d3c" /><rect x="97" y="64" width="9" height="1" fill="#83916b" /><rect x="108" y="64" width="11" height="7" fill="#637251" /><rect x="108" y="70" width="11" height="1" fill="#384d3c" /><rect x="109" y="64" width="9" height="1" fill="#83916b" /><rect x="111" y="67" width="4" height="1" fill="#92a06c" /><rect x="120" y="64" width="11" height="7" fill="#465b45" /><rect x="120" y="70" width="11" height="1" fill="#384d3c" /><rect x="121" y="64" width="9" height="1" fill="#83916b" /><rect x="132" y="64" width="11" height="7" fill="#71805a" /><rect x="132" y="70" width="11" height="1" fill="#384d3c" /><rect x="133" y="64" width="9" height="1" fill="#83916b" /><rect x="135" y="67" width="4" height="1" fill="#92a06c" /><rect x="144" y="64" width="11" height="7" fill="#52634a" /><rect x="144" y="70" width="11" height="1" fill="#384d3c" /><rect x="145" y="64" width="9" height="1" fill="#83916b" /><rect x="156" y="64" width="11" height="7" fill="#5d6b4d" /><rect x="156" y="70" width="11" height="1" fill="#384d3c" /><rect x="157" y="64" width="9" height="1" fill="#83916b" /><rect x="159" y="67" width="4" height="1" fill="#92a06c" /><rect x="-6" y="72" width="11" height="7" fill="#465b45" /><rect x="-6" y="78" width="11" height="1" fill="#384d3c" /><rect x="-5" y="72" width="9" height="1" fill="#83916b" /><rect x="6" y="72" width="11" height="7" fill="#465b45" /><rect x="6" y="78" width="11" height="1" fill="#384d3c" /><rect x="7" y="72" width="9" height="1" fill="#83916b" /><rect x="18" y="72" width="11" height="7" fill="#465b45" /><rect x="18" y="78" width="11" height="1" fill="#384d3c" /><rect x="19" y="72" width="9" height="1" fill="#83916b" /><rect x="21" y="75" width="4" height="1" fill="#92a06c" /><rect x="30" y="72" width="11" height="7" fill="#5d6b4d" /><rect x="30" y="78" width="11" height="1" fill="#384d3c" /><rect x="31" y="72" width="9" height="1" fill="#83916b" /><rect x="33" y="75" width="4" height="1" fill="#92a06c" /><rect x="37" y="74" width="2" height="3" fill="#56684c" /><rect x="42" y="72" width="11" height="7" fill="#5d6b4d" /><rect x="42" y="78" width="11" height="1" fill="#384d3c" /><rect x="43" y="72" width="9" height="1" fill="#83916b" /><rect x="54" y="72" width="11" height="7" fill="#5d6b4d" /><rect x="54" y="78" width="11" height="1" fill="#384d3c" /><rect x="55" y="72" width="9" height="1" fill="#83916b" /><rect x="66" y="72" width="11" height="7" fill="#5d6b4d" /><rect x="66" y="78" width="11" height="1" fill="#384d3c" /><rect x="67" y="72" width="9" height="1" fill="#83916b" /><rect x="78" y="72" width="11" height="7" fill="#71805a" /><rect x="78" y="78" width="11" height="1" fill="#384d3c" /><rect x="79" y="72" width="9" height="1" fill="#83916b" /><rect x="90" y="72" width="11" height="7" fill="#71805a" /><rect x="90" y="78" width="11" height="1" fill="#384d3c" /><rect x="91" y="72" width="9" height="1" fill="#83916b" /><rect x="93" y="75" width="4" height="1" fill="#92a06c" /><rect x="102" y="72" width="11" height="7" fill="#71805a" /><rect x="102" y="78" width="11" height="1" fill="#384d3c" /><rect x="103" y="72" width="9" height="1" fill="#83916b" /><rect x="114" y="72" width="11" height="7" fill="#71805a" /><rect x="114" y="78" width="11" height="1" fill="#384d3c" /><rect x="115" y="72" width="9" height="1" fill="#83916b" /><rect x="126" y="72" width="11" height="7" fill="#71805a" /><rect x="126" y="78" width="11" height="1" fill="#384d3c" /><rect x="127" y="72" width="9" height="1" fill="#83916b" /><rect x="133" y="74" width="2" height="3" fill="#56684c" /><rect x="138" y="72" width="11" height="7" fill="#637251" /><rect x="138" y="78" width="11" height="1" fill="#384d3c" /><rect x="139" y="72" width="9" height="1" fill="#83916b" /><rect x="150" y="72" width="11" height="7" fill="#637251" /><rect x="150" y="78" width="11" height="1" fill="#384d3c" /><rect x="151" y="72" width="9" height="1" fill="#83916b" /><rect x="153" y="75" width="4" height="1" fill="#92a06c" /><rect x="162" y="72" width="11" height="7" fill="#637251" /><rect x="162" y="78" width="11" height="1" fill="#384d3c" /><rect x="163" y="72" width="9" height="1" fill="#83916b" /><rect x="-12" y="80" width="11" height="7" fill="#465b45" /><rect x="-12" y="86" width="11" height="1" fill="#384d3c" /><rect x="-11" y="80" width="9" height="1" fill="#83916b" /><rect x="0" y="80" width="11" height="7" fill="#637251" /><rect x="0" y="86" width="11" height="1" fill="#384d3c" /><rect x="1" y="80" width="9" height="1" fill="#83916b" /><rect x="12" y="80" width="11" height="7" fill="#5d6b4d" /><rect x="12" y="86" width="11" height="1" fill="#384d3c" /><rect x="13" y="80" width="9" height="1" fill="#83916b" /><rect x="24" y="80" width="11" height="7" fill="#52634a" /><rect x="24" y="86" width="11" height="1" fill="#384d3c" /><rect x="25" y="80" width="9" height="1" fill="#83916b" /><rect x="36" y="80" width="11" height="7" fill="#71805a" /><rect x="36" y="86" width="11" height="1" fill="#384d3c" /><rect x="37" y="80" width="9" height="1" fill="#83916b" /><rect x="48" y="80" width="11" height="7" fill="#5d6b4d" /><rect x="48" y="86" width="11" height="1" fill="#384d3c" /><rect x="49" y="80" width="9" height="1" fill="#83916b" /><rect x="51" y="83" width="4" height="1" fill="#92a06c" /><rect x="60" y="80" width="11" height="7" fill="#52634a" /><rect x="60" y="86" width="11" height="1" fill="#384d3c" /><rect x="61" y="80" width="9" height="1" fill="#83916b" /><rect x="63" y="83" width="4" height="1" fill="#92a06c" /><rect x="72" y="80" width="11" height="7" fill="#71805a" /><rect x="72" y="86" width="11" height="1" fill="#384d3c" /><rect x="73" y="80" width="9" height="1" fill="#83916b" /><rect x="75" y="83" width="4" height="1" fill="#92a06c" /><rect x="84" y="80" width="11" height="7" fill="#465b45" /><rect x="84" y="86" width="11" height="1" fill="#384d3c" /><rect x="85" y="80" width="9" height="1" fill="#83916b" /><rect x="87" y="83" width="4" height="1" fill="#92a06c" /><rect x="91" y="82" width="2" height="3" fill="#56684c" /><rect x="96" y="80" width="11" height="7" fill="#52634a" /><rect x="96" y="86" width="11" height="1" fill="#384d3c" /><rect x="97" y="80" width="9" height="1" fill="#83916b" /><rect x="108" y="80" width="11" height="7" fill="#71805a" /><rect x="108" y="86" width="11" height="1" fill="#384d3c" /><rect x="109" y="80" width="9" height="1" fill="#83916b" /><rect x="120" y="80" width="11" height="7" fill="#465b45" /><rect x="120" y="86" width="11" height="1" fill="#384d3c" /><rect x="121" y="80" width="9" height="1" fill="#83916b" /><rect x="132" y="80" width="11" height="7" fill="#637251" /><rect x="132" y="86" width="11" height="1" fill="#384d3c" /><rect x="133" y="80" width="9" height="1" fill="#83916b" /><rect x="144" y="80" width="11" height="7" fill="#71805a" /><rect x="144" y="86" width="11" height="1" fill="#384d3c" /><rect x="145" y="80" width="9" height="1" fill="#83916b" /><rect x="156" y="80" width="11" height="7" fill="#465b45" /><rect x="156" y="86" width="11" height="1" fill="#384d3c" /><rect x="157" y="80" width="9" height="1" fill="#83916b" /><rect x="-6" y="88" width="11" height="7" fill="#52634a" /><rect x="-6" y="94" width="11" height="1" fill="#384d3c" /><rect x="-5" y="88" width="9" height="1" fill="#83916b" /><rect x="6" y="88" width="11" height="7" fill="#465b45" /><rect x="6" y="94" width="11" height="1" fill="#384d3c" /><rect x="7" y="88" width="9" height="1" fill="#83916b" /><rect x="9" y="91" width="4" height="1" fill="#92a06c" /><rect x="18" y="88" width="11" height="7" fill="#71805a" /><rect x="18" y="94" width="11" height="1" fill="#384d3c" /><rect x="19" y="88" width="9" height="1" fill="#83916b" /><rect x="30" y="88" width="11" height="7" fill="#637251" /><rect x="30" y="94" width="11" height="1" fill="#384d3c" /><rect x="31" y="88" width="9" height="1" fill="#83916b" /><rect x="42" y="88" width="11" height="7" fill="#52634a" /><rect x="42" y="94" width="11" height="1" fill="#384d3c" /><rect x="43" y="88" width="9" height="1" fill="#83916b" /><rect x="45" y="91" width="4" height="1" fill="#92a06c" /><rect x="54" y="88" width="11" height="7" fill="#465b45" /><rect x="54" y="94" width="11" height="1" fill="#384d3c" /><rect x="55" y="88" width="9" height="1" fill="#83916b" /><rect x="66" y="88" width="11" height="7" fill="#71805a" /><rect x="66" y="94" width="11" height="1" fill="#384d3c" /><rect x="67" y="88" width="9" height="1" fill="#83916b" /><rect x="78" y="88" width="11" height="7" fill="#637251" /><rect x="78" y="94" width="11" height="1" fill="#384d3c" /><rect x="79" y="88" width="9" height="1" fill="#83916b" /><rect x="81" y="91" width="4" height="1" fill="#92a06c" /><rect x="90" y="88" width="11" height="7" fill="#52634a" /><rect x="90" y="94" width="11" height="1" fill="#384d3c" /><rect x="91" y="88" width="9" height="1" fill="#83916b" /><rect x="102" y="88" width="11" height="7" fill="#465b45" /><rect x="102" y="94" width="11" height="1" fill="#384d3c" /><rect x="103" y="88" width="9" height="1" fill="#83916b" /><rect x="114" y="88" width="11" height="7" fill="#71805a" /><rect x="114" y="94" width="11" height="1" fill="#384d3c" /><rect x="115" y="88" width="9" height="1" fill="#83916b" /><rect x="117" y="91" width="4" height="1" fill="#92a06c" /><rect x="126" y="88" width="11" height="7" fill="#637251" /><rect x="126" y="94" width="11" height="1" fill="#384d3c" /><rect x="127" y="88" width="9" height="1" fill="#83916b" /><rect x="138" y="88" width="11" height="7" fill="#52634a" /><rect x="138" y="94" width="11" height="1" fill="#384d3c" /><rect x="139" y="88" width="9" height="1" fill="#83916b" /><rect x="150" y="88" width="11" height="7" fill="#465b45" /><rect x="150" y="94" width="11" height="1" fill="#384d3c" /><rect x="151" y="88" width="9" height="1" fill="#83916b" /><rect x="162" y="88" width="11" height="7" fill="#71805a" /><rect x="162" y="94" width="11" height="1" fill="#384d3c" /><rect x="163" y="88" width="9" height="1" fill="#83916b" /><rect x="-12" y="96" width="11" height="7" fill="#52634a" /><rect x="-12" y="102" width="11" height="1" fill="#384d3c" /><rect x="-11" y="96" width="9" height="1" fill="#83916b" /><rect x="-9" y="99" width="4" height="1" fill="#92a06c" /><rect x="0" y="96" width="11" height="7" fill="#637251" /><rect x="0" y="102" width="11" height="1" fill="#384d3c" /><rect x="1" y="96" width="9" height="1" fill="#83916b" /><rect x="12" y="96" width="11" height="7" fill="#71805a" /><rect x="12" y="102" width="11" height="1" fill="#384d3c" /><rect x="13" y="96" width="9" height="1" fill="#83916b" /><rect x="15" y="99" width="4" height="1" fill="#92a06c" /><rect x="24" y="96" width="11" height="7" fill="#5d6b4d" /><rect x="24" y="102" width="11" height="1" fill="#384d3c" /><rect x="25" y="96" width="9" height="1" fill="#83916b" /><rect x="36" y="96" width="11" height="7" fill="#5d6b4d" /><rect x="36" y="102" width="11" height="1" fill="#384d3c" /><rect x="37" y="96" width="9" height="1" fill="#83916b" /><rect x="48" y="96" width="11" height="7" fill="#465b45" /><rect x="48" y="102" width="11" height="1" fill="#384d3c" /><rect x="49" y="96" width="9" height="1" fill="#83916b" /><rect x="60" y="96" width="11" height="7" fill="#52634a" /><rect x="60" y="102" width="11" height="1" fill="#384d3c" /><rect x="61" y="96" width="9" height="1" fill="#83916b" /><rect x="72" y="96" width="11" height="7" fill="#52634a" /><rect x="72" y="102" width="11" height="1" fill="#384d3c" /><rect x="73" y="96" width="9" height="1" fill="#83916b" /><rect x="75" y="99" width="4" height="1" fill="#92a06c" /><rect x="84" y="96" width="11" height="7" fill="#637251" /><rect x="84" y="102" width="11" height="1" fill="#384d3c" /><rect x="85" y="96" width="9" height="1" fill="#83916b" /><rect x="96" y="96" width="11" height="7" fill="#71805a" /><rect x="96" y="102" width="11" height="1" fill="#384d3c" /><rect x="97" y="96" width="9" height="1" fill="#83916b" /><rect x="99" y="99" width="4" height="1" fill="#92a06c" /><rect x="108" y="96" width="11" height="7" fill="#5d6b4d" /><rect x="108" y="102" width="11" height="1" fill="#384d3c" /><rect x="109" y="96" width="9" height="1" fill="#83916b" /><rect x="120" y="96" width="11" height="7" fill="#5d6b4d" /><rect x="120" y="102" width="11" height="1" fill="#384d3c" /><rect x="121" y="96" width="9" height="1" fill="#83916b" /><rect x="132" y="96" width="11" height="7" fill="#465b45" /><rect x="132" y="102" width="11" height="1" fill="#384d3c" /><rect x="133" y="96" width="9" height="1" fill="#83916b" /><rect x="144" y="96" width="11" height="7" fill="#52634a" /><rect x="144" y="102" width="11" height="1" fill="#384d3c" /><rect x="145" y="96" width="9" height="1" fill="#83916b" /><rect x="151" y="98" width="2" height="3" fill="#56684c" /><rect x="156" y="96" width="11" height="7" fill="#52634a" /><rect x="156" y="102" width="11" height="1" fill="#384d3c" /><rect x="157" y="96" width="9" height="1" fill="#83916b" /><rect x="159" y="99" width="4" height="1" fill="#92a06c" /><rect x="163" y="98" width="2" height="3" fill="#56684c" /></g><polygon points="1,101 22,33 138,33 159,101" fill="none" stroke="#202727" stroke-width="3"/><path d="M2 101L23 33M158 101L137 33" fill="none" stroke="#6c5a3e" stroke-width="5"/><path d="M4 100L25 36M156 100L135 36" fill="none" stroke="#b49b69" stroke-width="1"/><rect x="1" y="102" width="158" height="5" fill="#38382d" /><rect x="2" y="102" width="156" height="2" fill="#a8905d" /><rect x="4" y="106" width="152" height="2" fill="#202a25" /><rect x="18" y="91" width="2" height="5" fill="#9fa870" /><rect x="16" y="93" width="6" height="1" fill="#7d9360" /><rect x="37" y="66" width="2" height="5" fill="#9fa870" /><rect x="35" y="68" width="6" height="1" fill="#7d9360" /><rect x="77" y="40" width="2" height="5" fill="#9fa870" /><rect x="75" y="42" width="6" height="1" fill="#7d9360" /><rect x="120" y="92" width="2" height="5" fill="#9fa870" /><rect x="118" y="94" width="6" height="1" fill="#7d9360" /><rect x="143" y="88" width="2" height="5" fill="#9fa870" /><rect x="141" y="90" width="6" height="1" fill="#7d9360" /><rect x="99" y="70" width="2" height="5" fill="#9fa870" /><rect x="97" y="72" width="6" height="1" fill="#7d9360" /><rect x="18" y="29" width="124" height="7" fill="#322d26" /><rect x="19" y="30" width="122" height="2" fill="#a28255" /><rect x="20" y="33" width="120" height="1" fill="#655138" /><rect x="27" y="30" width="3" height="5" fill="#65716c" /><rect x="27" y="30" width="2" height="1" fill="#aab09d" /><rect x="43" y="30" width="3" height="5" fill="#65716c" /><rect x="43" y="30" width="2" height="1" fill="#aab09d" /><rect x="59" y="30" width="3" height="5" fill="#65716c" /><rect x="59" y="30" width="2" height="1" fill="#aab09d" /><rect x="75" y="30" width="3" height="5" fill="#65716c" /><rect x="75" y="30" width="2" height="1" fill="#aab09d" /><rect x="91" y="30" width="3" height="5" fill="#65716c" /><rect x="91" y="30" width="2" height="1" fill="#aab09d" /><rect x="107" y="30" width="3" height="5" fill="#65716c" /><rect x="107" y="30" width="2" height="1" fill="#aab09d" /><rect x="123" y="30" width="3" height="5" fill="#65716c" /><rect x="123" y="30" width="2" height="1" fill="#aab09d" /><g transform="translate(14,8)"><path d="M0 25V17H4V11H7V5H10V0H17V3H14V7H18V10H10V16H7V25Z" fill="#3f3328" stroke="#202927" stroke-width="1"/><path d="M2 23V18H6V12H9V8H11V4H14" fill="none" stroke="#ab8958" stroke-width="2"/><rect x="14" y="2" width="1" height="1" fill="#f0d698" /></g><g transform="translate(146,8) scale(-1,1)"><path d="M0 25V17H4V11H7V5H10V0H17V3H14V7H18V10H10V16H7V25Z" fill="#3f3328" stroke="#202927" stroke-width="1"/><path d="M2 23V18H6V12H9V8H11V4H14" fill="none" stroke="#ab8958" stroke-width="2"/><rect x="14" y="2" width="1" height="1" fill="#f0d698" /></g><g transform="translate(29,121)"><polygon points="-7,-9 7,-9 7,-7 10,-7 10,7 7,7 7,10 -7,10 -7,7 -10,7 -10,-7 -7,-7" fill="#273333"/><polygon points="-6,-7 6,-7 6,-5 8,-5 8,5 6,5 6,8 -6,8 -6,5 -8,5 -8,-5 -6,-5" fill="#856139"/><rect x="-1" y="-7" width="2" height="15" fill="#a9a38a" /><rect x="-8" y="-1" width="16" height="2" fill="#a9a38a" /><rect x="-3" y="-3" width="6" height="6" fill="#283432" /><rect x="-2" y="-2" width="4" height="4" fill="#a0a89b" /><rect x="-2" y="-2" width="2" height="1" fill="#d4cfb3" /></g></svg>
