<svg xmlns="http://www.w3.org/2000/svg" width="160" height="80" viewBox="0 0 160 80" shape-rendering="crispEdges"><title>Frosthavn longboat</title><polygon points="2,62 13,68 40,73 124,73 147,64 158,53 148,60 120,66 43,66 14,61" fill="#1d3536"/><polygon points="5,42 20,48 42,55 115,55 139,43 153,30 148,53 126,68 40,71 17,62 7,52" fill="#332f27" stroke="#202727" stroke-width="2"/><polygon points="12,46 30,52 47,59 115,59 140,46 148,39 143,53 124,64 43,66 23,58" fill="#997145"/><path d="M17 52L43 61H119L143 48M21 57L43 65H120L139 55" fill="none" stroke="#4c3d2c" stroke-width="2"/><polygon points="17,45 42,35 113,33 141,40 118,55 47,57" fill="#473c2b" stroke="#202727" stroke-width="2"/><polygon points="28,45 45,38 111,36 132,41 115,50 47,52" fill="#b48c56"/><path d="M43 38L44 53" fill="none" stroke="#644b32" stroke-width="2"/><path d="M56 38L57 53" fill="none" stroke="#644b32" stroke-width="2"/><path d="M69 38L70 53" fill="none" stroke="#644b32" stroke-width="2"/><path d="M82 38L83 53" fill="none" stroke="#644b32" stroke-width="2"/><path d="M95 38L96 53" fill="none" stroke="#644b32" stroke-width="2"/><path d="M108 38L109 53" fill="none" stroke="#644b32" stroke-width="2"/><rect x="48" y="39" width="5" height="14" fill="#423b2c" /><rect x="49" y="39" width="2" height="14" fill="#c09861" /><rect x="76" y="39" width="5" height="14" fill="#423b2c" /><rect x="77" y="39" width="2" height="14" fill="#c09861" /><rect x="104" y="39" width="5" height="14" fill="#423b2c" /><rect x="105" y="39" width="2" height="14" fill="#c09861" /><rect x="79" y="10" width="4" height="40" fill="#382f25" /><rect x="80" y="11" width="1" height="37" fill="#c69c62" /><path d="M81 11L47 48M81 11L115 46" fill="none" stroke="#c3b187" stroke-width="1"/><rect x="57" y="16" width="49" height="5" fill="#382f29" /><rect x="58" y="12" width="47" height="6" fill="#d0c39c" /><rect x="59" y="12" width="45" height="2" fill="#eee0b5" /><rect x="62" y="12" width="2" height="7" fill="#7e5940" /><rect x="75" y="12" width="2" height="7" fill="#7e5940" /><rect x="88" y="12" width="2" height="7" fill="#7e5940" /><rect x="101" y="12" width="2" height="7" fill="#7e5940" /><g transform="translate(44,60)"><polygon points="-7,-9 7,-9 7,-7 10,-7 10,7 7,7 7,10 -7,10 -7,7 -10,7 -10,-7 -7,-7" fill="#273333"/><polygon points="-6,-7 6,-7 6,-5 8,-5 8,5 6,5 6,8 -6,8 -6,5 -8,5 -8,-5 -6,-5" fill="#8d4936"/><rect x="-1" y="-7" width="2" height="15" fill="#a9a38a" /><rect x="-8" y="-1" width="16" height="2" fill="#a9a38a" /><rect x="-3" y="-3" width="6" height="6" fill="#283432" /><rect x="-2" y="-2" width="4" height="4" fill="#a0a89b" /><rect x="-2" y="-2" width="2" height="1" fill="#d4cfb3" /></g><g transform="translate(67,60)"><polygon points="-7,-9 7,-9 7,-7 10,-7 10,7 7,7 7,10 -7,10 -7,7 -10,7 -10,-7 -7,-7" fill="#273333"/><polygon points="-6,-7 6,-7 6,-5 8,-5 8,5 6,5 6,8 -6,8 -6,5 -8,5 -8,-5 -6,-5" fill="#536b5b"/><rect x="-1" y="-7" width="2" height="15" fill="#a9a38a" /><rect x="-8" y="-1" width="16" height="2" fill="#a9a38a" /><rect x="-3" y="-3" width="6" height="6" fill="#283432" /><rect x="-2" y="-2" width="4" height="4" fill="#a0a89b" /><rect x="-2" y="-2" width="2" height="1" fill="#d4cfb3" /></g><g transform="translate(92,60)"><polygon points="-7,-9 7,-9 7,-7 10,-7 10,7 7,7 7,10 -7,10 -7,7 -10,7 -10,-7 -7,-7" fill="#273333"/><polygon points="-6,-7 6,-7 6,-5 8,-5 8,5 6,5 6,8 -6,8 -6,5 -8,5 -8,-5 -6,-5" fill="#8d4936"/><rect x="-1" y="-7" width="2" height="15" fill="#a9a38a" /><rect x="-8" y="-1" width="16" height="2" fill="#a9a38a" /><rect x="-3" y="-3" width="6" height="6" fill="#283432" /><rect x="-2" y="-2" width="4" height="4" fill="#a0a89b" /><rect x="-2" y="-2" width="2" height="1" fill="#d4cfb3" /></g><g transform="translate(117,60)"><polygon points="-7,-9 7,-9 7,-7 10,-7 10,7 7,7 7,10 -7,10 -7,7 -10,7 -10,-7 -7,-7" fill="#273333"/><polygon points="-6,-7 6,-7 6,-5 8,-5 8,5 6,5 6,8 -6,8 -6,5 -8,5 -8,-5 -6,-5" fill="#536b5b"/><rect x="-1" y="-7" width="2" height="15" fill="#a9a38a" /><rect x="-8" y="-1" width="16" height="2" fill="#a9a38a" /><rect x="-3" y="-3" width="6" height="6" fill="#283432" /><rect x="-2" y="-2" width="4" height="4" fill="#a0a89b" /><rect x="-2" y="-2" width="2" height="1" fill="#d4cfb3" /></g><path d="M7 52V38H4V28H8V20H15V22H20V27H15V31H11V41H15V53Z" fill="#644b32" stroke="#202727" stroke-width="1"/><path d="M10 47V34H8V29H11V24H16" fill="none" stroke="#bd955d" stroke-width="2"/><rect x="14" y="24" width="2" height="2" fill="#eee2b6" /><path d="M143 49V36H147V27H150V20H156V22H159V27H153V33H151V43H148V50Z" fill="#644b32" stroke="#202727" stroke-width="1"/><path d="M146 46V36H150V29H153V24H156" fill="none" stroke="#bd955d" stroke-width="2"/></svg>
